<svg width="334" height="339" viewBox="0 0 334 339" fill="none" xmlns="http://www.w3.org/2000/svg">
<path d="M152.5 174C152.5 184.412 146.382 194 136.161 201.049C125.945 208.094 111.751 212.5 96 212.5C93.4525 212.5 90.9593 212.525 88.5233 212.549C83.2332 212.602 78.2128 212.652 73.4913 212.439C66.6118 212.129 60.5776 211.265 55.5789 209.121C50.6325 207.001 46.6622 203.613 43.8969 198.136C41.1075 192.612 39.5 184.873 39.5 174C39.5 163.588 45.6178 154 55.8394 146.951C66.0547 139.906 80.249 135.5 96 135.5C111.751 135.5 125.945 139.906 136.161 146.951C146.382 154 152.5 163.588 152.5 174Z" fill="white" stroke="white" stroke-width="3"/>
<path d="M294.5 174C294.5 185.201 294.423 194.5 287.69 201.223C280.908 207.994 266.982 212.5 238 212.5C222.249 212.5 208.055 208.094 197.839 201.049C187.618 194 181.5 184.412 181.5 174C181.5 163.588 187.618 154 197.839 146.951C208.055 139.906 222.249 135.5 238 135.5C253.751 135.5 267.945 139.906 278.161 146.951C288.382 154 294.5 163.588 294.5 174Z" fill="white" stroke="white" stroke-width="3"/>
<ellipse cx="81.1152" cy="166.931" rx="10.9506" ry="31.483" transform="rotate(55.2845 81.1152 166.931)" fill="white"/>
<ellipse cx="223.115" cy="166.931" rx="10.9506" ry="31.483" transform="rotate(55.2845 223.115 166.931)" fill="white"/>
<ellipse cx="111.444" cy="179.538" rx="5.73786" ry="17.2467" transform="rotate(55.2845 111.444 179.538)" fill="white"/>
<ellipse cx="253.444" cy="179.538" rx="5.73786" ry="17.2467" transform="rotate(55.2845 253.444 179.538)" fill="white"/>
<rect x="133" y="167" width="58" height="14" fill="white"/>
<path fill-rule="evenodd" clip-rule="evenodd" d="M286.947 8.0328C279.102 67.2819 228.391 113 167 113C105.609 113 54.8978 67.282 47.0531 8.03281C19.7537 42.8312 3 89.5586 3 141C3 249.195 76.8837 336 167 336C257.116 336 331 249.195 331 141C331 89.5586 314.246 42.8312 286.947 8.0328ZM284.318 4.75862C277.957 63.9276 227.859 110 167 110C106.141 110 56.0431 63.9276 49.6817 4.75863C49.531 3.35676 49.4049 1.94753 49.3037 0.531392C48.382 1.617 47.471 2.71528 46.5707 3.82598C17.7292 39.411 0 87.7508 0 141C0 250.352 74.7684 339 167 339C259.232 339 334 250.352 334 141C334 87.7508 316.271 39.411 287.429 3.82597C286.529 2.71527 285.618 1.617 284.696 0.531387C284.595 1.94753 284.469 3.35675 284.318 4.75862Z" fill="white"/>
<path d="M167 317L136.689 244.25L197.311 244.25L167 317Z" fill="white"/>
</svg>
